<svg xmlns="http://www.w3.org/2000/svg" viewBox="0 0 1200 560" width="1200" height="560" font-family="'Space Grotesk', Arial, sans-serif">
  <defs>
    <linearGradient id="tg" x1="0" y1="0" x2="1" y2="1">
      <stop offset="0%" stop-color="#e7a87a"/><stop offset="100%" stop-color="#c4713a"/>
    </linearGradient>
    <linearGradient id="wave" x1="0" y1="0" x2="1" y2="0">
      <stop offset="0%" stop-color="#8cc09e"/><stop offset="100%" stop-color="#4f8a63"/>
    </linearGradient>
  </defs>
  <rect width="1200" height="560" fill="#ffffff"/>
  <g stroke="#eef2f7" stroke-width="1">
    <path d="M0 140 H1200 M0 280 H1200 M0 420 H1200"/>
    <path d="M300 0 V560 M600 0 V560 M900 0 V560"/>
  </g>
  <path d="M40 300 q40 -90 80 0 t80 0 q40 -130 80 0 t80 0 q40 -60 80 0 t80 0 q40 -110 80 0 t80 0 q40 -70 80 0 t80 0 q40 -100 80 0 t80 0"
        fill="none" stroke="url(#wave)" stroke-width="6" stroke-linecap="round" opacity="0.9"/>
  <g>
    <circle cx="170" cy="150" r="30" fill="#df8a52" opacity="0.16"/><circle cx="170" cy="150" r="11" fill="#df8a52"/>
    <circle cx="600" cy="120" r="30" fill="#74b389" opacity="0.16"/><circle cx="600" cy="120" r="11" fill="#74b389"/>
    <circle cx="1030" cy="150" r="30" fill="#5c9cbd" opacity="0.16"/><circle cx="1030" cy="150" r="11" fill="#5c9cbd"/>
  </g>
  <rect x="430" y="40" width="300" height="14" rx="7" fill="url(#tg)" opacity="0.9"/>
  <text x="600" y="470" text-anchor="middle" font-size="40" font-weight="700" fill="#34414f">Overview of Inertia-1</text>
  <text x="600" y="510" text-anchor="middle" font-size="22" fill="#6b7a90">Large-scale pretraining to controlled sensing study to activity, gait &amp; disease evaluation</text>
  <g transform="translate(40,40)">
    <rect x="0" y="0" width="210" height="34" rx="17" fill="#34414f"/>
    <text x="105" y="23" text-anchor="middle" font-size="15" fill="#ffffff" letter-spacing="2">PLACEHOLDER &#8212; FIG 1</text>
  </g>
</svg>
